<svg width="400" height="400" viewBox="0 0 400 400" fill="none" xmlns="http://www.w3.org/2000/svg">
  <circle cx="200" cy="200" r="180" fill="#F0E6FF"/>
  <path d="M200 120C166.863 120 140 146.863 140 180C140 213.137 166.863 240 200 240C233.137 240 260 213.137 260 180C260 146.863 233.137 120 200 120ZM200 230C172.386 230 150 207.614 150 180C150 152.386 172.386 130 200 130C227.614 130 250 152.386 250 180C250 207.614 227.614 230 200 230Z" fill="#1A1A1A"/>
  <path d="M200 260C160 260 120 280 120 320V340H280V320C280 280 240 260 200 260ZM270 330H130V320C130 290 170 270 200 270C230 270 270 290 270 320V330Z" fill="#1A1A1A"/>
  <path d="M180 160H220V180H180V160Z" fill="#FF7F50"/>
  <path d="M160 150C165.523 150 170 145.523 170 140C170 134.477 165.523 130 160 130C154.477 130 150 134.477 150 140C150 145.523 154.477 150 160 150Z" fill="#1A1A1A"/>
  <path d="M240 150C245.523 150 250 145.523 250 140C250 134.477 245.523 130 240 130C234.477 130 230 134.477 230 140C230 145.523 234.477 150 240 150Z" fill="#1A1A1A"/>
  <path d="M200 200C211.046 200 220 191.046 220 180C220 168.954 211.046 160 200 160C188.954 160 180 168.954 180 180C180 191.046 188.954 200 200 200Z" fill="#FF7F50"/>
</svg>