<svg width="400" height="400" viewBox="0 0 400 400" fill="none" xmlns="http://www.w3.org/2000/svg">
  <circle cx="200" cy="200" r="180" fill="#FFE4D6"/>
  <path d="M200 120C166.863 120 140 146.863 140 180C140 213.137 166.863 240 200 240C233.137 240 260 213.137 260 180C260 146.863 233.137 120 200 120ZM200 230C172.386 230 150 207.614 150 180C150 152.386 172.386 130 200 130C227.614 130 250 152.386 250 180C250 207.614 227.614 230 200 230Z" fill="#1A1A1A"/>
  <path d="M200 260C160 260 120 280 120 320V340H280V320C280 280 240 260 200 260ZM270 330H130V320C130 290 170 270 200 270C230 270 270 290 270 320V330Z" fill="#1A1A1A"/>
  <path d="M180 170H220V190H180V170Z" fill="#FF7F50"/>
  <path d="M160 160C165.523 160 170 155.523 170 150C170 144.477 165.523 140 160 140C154.477 140 150 144.477 150 150C150 155.523 154.477 160 160 160Z" fill="#1A1A1A"/>
  <path d="M240 160C245.523 160 250 155.523 250 150C250 144.477 245.523 140 240 140C234.477 140 230 144.477 230 150C230 155.523 234.477 160 240 160Z" fill="#1A1A1A"/>
</svg>