<svg xmlns="http://www.w3.org/2000/svg" viewBox="0 0 24 24" width="24" height="24"><path fill="#1a1a1a" d="M12 0C5.372 0 0 5.373 0 12s5.372 12 12 12c6.627 0 12-5.373 12-12S18.627 0 12 0zm9.885 11.441c-2.575-.422-4.943-.445-7.103-.073-.244-.563-.497-1.125-.767-1.68 2.31-1 4.165-2.358 5.548-4.082 1.35 1.594 2.197 3.619 2.322 5.835zm-3.842-7.282c-1.205 1.554-2.868 2.783-4.986 3.68-1.016-1.861-2.178-3.676-3.488-5.438.779-.197 1.591-.314 2.431-.314 2.275 0 4.368.779 6.043 2.072zm-10.516-.993c1.331 1.742 2.511 3.538 3.537 5.381-2.43.715-5.331 1.082-8.684 1.105.692-2.835 2.601-5.193 5.147-6.486zM1.333 12c0-.054.003-.107.006-.16 3.952-.026 7.367-.467 10.246-1.277.267.549.517 1.104.756 1.664-3.859 1.133-7.125 3.379-9.797 6.734C1.673 17.117 1.333 15.113 1.333 12zm3.433 7.382c2.469-3.168 5.479-5.271 9.033-6.294 1.135 2.937 1.955 5.965 2.461 9.082-1.294.592-2.725.922-4.26.922-2.945 0-5.607-1.399-7.234-3.71zm10.887 2.83c-.465-2.945-1.223-5.809-2.275-8.582 1.931-.309 4.051-.276 6.359.098-1.193 3.708-3.806 6.467-4.084 8.484z"/></svg>