<svg width="80" height="80" viewBox="0 0 80 80" fill="none" xmlns="http://www.w3.org/2000/svg">
  <rect width="80" height="80" rx="40" fill="#FF7F50"/>
  <path d="M40 40C40 34.477 44.477 30 50 30C55.523 30 60 34.477 60 40C60 45.523 55.523 50 50 50C44.477 50 40 45.523 40 40Z" fill="white"/>
  <path d="M20 60C20 54.477 24.477 50 30 50H40V60C40 65.523 35.523 70 30 70C24.477 70 20 65.523 20 60Z" fill="white"/>
  <path d="M20 40C20 34.477 24.477 30 30 30H40V50H30C24.477 50 20 45.523 20 40Z" fill="white"/>
  <path d="M20 20C20 14.477 24.477 10 30 10H40V30H30C24.477 30 20 25.523 20 20Z" fill="white"/>
  <path d="M40 10H50C55.523 10 60 14.477 60 20C60 25.523 55.523 30 50 30H40V10Z" fill="white"/>
</svg>