<svg xmlns="http://www.w3.org/2000/svg" viewBox="0 0 24 24" fill="#1a1a1a">
  <path d="M12 2.16c3.2 0 3.58.01 4.85.07 3.25.15 4.77 1.69 4.92 4.92.06 1.27.07 1.65.07 4.85s-.01 3.58-.07 4.85c-.15 3.25-1.69 4.77-4.92 4.92-1.27.06-1.65.07-4.85.07s-3.58-.01-4.85-.07c-3.25-.15-4.77-1.69-4.92-4.92-.06-1.27-.07-1.65-.07-4.85s.01-3.58.07-4.85c.15-3.25 1.69-4.77 4.92-4.92 1.27-.06 1.65-.07 4.85-.07zm0-2.16c-3.27 0-3.68.01-4.96.07-4.07.2-5.8 1.95-6 6-.06 1.28-.07 1.69-.07 4.96s.01 3.68.07 4.96c.2 4.07 1.93 5.8 6 6 1.28.06 1.69.07 4.96.07s3.68-.01 4.96-.07c4.07-.2 5.8-1.93 6-6 .06-1.28.07-1.69.07-4.96s-.01-3.68-.07-4.96c-.2-4.07-1.93-5.8-6-6-1.28-.06-1.69-.07-4.96-.07zm0 3.84c2.48 0 4.5 2.02 4.5 4.5s-2.02 4.5-4.5 4.5-4.5-2.02-4.5-4.5 2.02-4.5 4.5-4.5zm0 1.5c-1.66 0-3 1.34-3 3s1.34 3 3 3 3-1.34 3-3-1.34-3-3-3zm6.06-3.12c.8 0 1.44.64 1.44 1.44s-.64 1.44-1.44 1.44-1.44-.64-1.44-1.44.64-1.44 1.44-1.44z"/>
</svg>